<?xml version="1.0" encoding="UTF-8" standalone="no"?>
<!DOCTYPE svg PUBLIC "-//W3C//DTD SVG 1.1//EN"
 "http://www.w3.org/Graphics/SVG/1.1/DTD/svg11.dtd">
<!-- Generated by graphviz version 2.26.3 (20100126.1600)
 -->
<!-- Title: g Pages: 1 -->
<svg width="479pt" height="348pt"
 viewBox="0.00 0.00 479.00 348.00" xmlns="http://www.w3.org/2000/svg" xmlns:xlink="http://www.w3.org/1999/xlink">
<g id="graph1" class="graph" transform="scale(1 1) rotate(0) translate(4 344)">
<title>g</title>
<polygon fill="white" stroke="white" points="-4,5 -4,-344 476,-344 476,5 -4,5"/>
<!-- N1 -->
<g id="node1" class="node"><title>N1</title>
<polygon fill="#ffffff" stroke="#ffffff" stroke-width="1.5" points="316.5,-303 379.5,-303 391.5,-315 391.5,-327 379.5,-339 316.5,-339 304.5,-327 304.5,-315 316.5,-303"/>
<path fill="#ffffff" stroke="#ffffff" stroke-width="1.5" d="M379.5,-303C385.5,-303 391.5,-309 391.5,-315"/>
<path fill="#ffffff" stroke="#ffffff" stroke-width="1.5" d="M391.5,-327C391.5,-333 385.5,-339 379.5,-339"/>
<path fill="#ffffff" stroke="#ffffff" stroke-width="1.5" d="M316.5,-339C310.5,-339 304.5,-333 304.5,-327"/>
<path fill="#ffffff" stroke="#ffffff" stroke-width="1.5" d="M304.5,-315C304.5,-309 310.5,-303 316.5,-303"/>
<polyline fill="none" stroke="#2e3436" stroke-width="1.5" points="316.5,-303 379.5,-303 "/>
<path fill="none" stroke="#2e3436" stroke-width="1.5" d="M379.5,-303C385.5,-303 391.5,-309 391.5,-315"/>
<polyline fill="none" stroke="#2e3436" stroke-width="1.5" points="391.5,-315 391.5,-327 "/>
<path fill="none" stroke="#2e3436" stroke-width="1.5" d="M391.5,-327C391.5,-333 385.5,-339 379.5,-339"/>
<polyline fill="none" stroke="#2e3436" stroke-width="1.5" points="379.5,-339 316.5,-339 "/>
<path fill="none" stroke="#2e3436" stroke-width="1.5" d="M316.5,-339C310.5,-339 304.5,-333 304.5,-327"/>
<polyline fill="none" stroke="#2e3436" stroke-width="1.5" points="304.5,-327 304.5,-315 "/>
<path fill="none" stroke="#2e3436" stroke-width="1.5" d="M304.5,-315C304.5,-309 310.5,-303 316.5,-303"/>
<text text-anchor="start" x="312.5" y="-318.8" font-family="FreeSans" font-size="8.00" fill="#1c2021">name = &#39;Clark Kent&#39;</text>
</g>
<!-- N2 -->
<g id="node3" class="node"><title>N2</title>
<polygon fill="#ffffff" stroke="#ffffff" stroke-width="1.5" points="178.5,-209 237.5,-209 249.5,-221 249.5,-233 237.5,-245 178.5,-245 166.5,-233 166.5,-221 178.5,-209"/>
<path fill="#ffffff" stroke="#ffffff" stroke-width="1.5" d="M237.5,-209C243.5,-209 249.5,-215 249.5,-221"/>
<path fill="#ffffff" stroke="#ffffff" stroke-width="1.5" d="M249.5,-233C249.5,-239 243.5,-245 237.5,-245"/>
<path fill="#ffffff" stroke="#ffffff" stroke-width="1.5" d="M178.5,-245C172.5,-245 166.5,-239 166.5,-233"/>
<path fill="#ffffff" stroke="#ffffff" stroke-width="1.5" d="M166.5,-221C166.5,-215 172.5,-209 178.5,-209"/>
<polyline fill="none" stroke="#2e3436" stroke-width="1.5" points="178.5,-209 237.5,-209 "/>
<path fill="none" stroke="#2e3436" stroke-width="1.5" d="M237.5,-209C243.5,-209 249.5,-215 249.5,-221"/>
<polyline fill="none" stroke="#2e3436" stroke-width="1.5" points="249.5,-221 249.5,-233 "/>
<path fill="none" stroke="#2e3436" stroke-width="1.5" d="M249.5,-233C249.5,-239 243.5,-245 237.5,-245"/>
<polyline fill="none" stroke="#2e3436" stroke-width="1.5" points="237.5,-245 178.5,-245 "/>
<path fill="none" stroke="#2e3436" stroke-width="1.5" d="M178.5,-245C172.5,-245 166.5,-239 166.5,-233"/>
<polyline fill="none" stroke="#2e3436" stroke-width="1.5" points="166.5,-233 166.5,-221 "/>
<path fill="none" stroke="#2e3436" stroke-width="1.5" d="M166.5,-221C166.5,-215 172.5,-209 178.5,-209"/>
<text text-anchor="start" x="174.5" y="-224.8" font-family="FreeSans" font-size="8.00" fill="#1c2021">name = &#39;Lois Lane&#39;</text>
</g>
<!-- N1&#45;&gt;N2 -->
<g id="edge2" class="edge"><title>N1&#45;&gt;N2</title>
<path fill="none" stroke="#2e3436" stroke-width="2" d="M321.007,-302.876C298.249,-287.596 265.591,-265.668 241.23,-249.311"/>
<polygon fill="#2e3436" stroke="#2e3436" points="234.911,-245.069 243.019,-246.447 238.303,-246.744 241.416,-248.834 241.137,-249.249 240.858,-249.664 237.745,-247.574 239.256,-252.051 234.911,-245.069 234.911,-245.069"/>
<text text-anchor="middle" x="308.5" y="-276.8" font-family="FreeSans" font-size="8.00" fill="#2e3436">KNOWS</text>
<text text-anchor="start" x="290" y="-266.8" font-family="FreeSans" font-size="8.00" fill="#2e3436">weight = 4</text>
</g>
<!-- N3 -->
<g id="node5" class="node"><title>N3</title>
<polygon fill="#ffffff" stroke="#ffffff" stroke-width="1.5" points="312.5,-209 383.5,-209 395.5,-221 395.5,-233 383.5,-245 312.5,-245 300.5,-233 300.5,-221 312.5,-209"/>
<path fill="#ffffff" stroke="#ffffff" stroke-width="1.5" d="M383.5,-209C389.5,-209 395.5,-215 395.5,-221"/>
<path fill="#ffffff" stroke="#ffffff" stroke-width="1.5" d="M395.5,-233C395.5,-239 389.5,-245 383.5,-245"/>
<path fill="#ffffff" stroke="#ffffff" stroke-width="1.5" d="M312.5,-245C306.5,-245 300.5,-239 300.5,-233"/>
<path fill="#ffffff" stroke="#ffffff" stroke-width="1.5" d="M300.5,-221C300.5,-215 306.5,-209 312.5,-209"/>
<polyline fill="none" stroke="#2e3436" stroke-width="1.5" points="312.5,-209 383.5,-209 "/>
<path fill="none" stroke="#2e3436" stroke-width="1.5" d="M383.5,-209C389.5,-209 395.5,-215 395.5,-221"/>
<polyline fill="none" stroke="#2e3436" stroke-width="1.5" points="395.5,-221 395.5,-233 "/>
<path fill="none" stroke="#2e3436" stroke-width="1.5" d="M395.5,-233C395.5,-239 389.5,-245 383.5,-245"/>
<polyline fill="none" stroke="#2e3436" stroke-width="1.5" points="383.5,-245 312.5,-245 "/>
<path fill="none" stroke="#2e3436" stroke-width="1.5" d="M312.5,-245C306.5,-245 300.5,-239 300.5,-233"/>
<polyline fill="none" stroke="#2e3436" stroke-width="1.5" points="300.5,-233 300.5,-221 "/>
<path fill="none" stroke="#2e3436" stroke-width="1.5" d="M300.5,-221C300.5,-215 306.5,-209 312.5,-209"/>
<text text-anchor="start" x="308.5" y="-224.8" font-family="FreeSans" font-size="8.00" fill="#1c2021">name = &#39;Jimmy Olsen&#39;</text>
</g>
<!-- N1&#45;&gt;N3 -->
<g id="edge4" class="edge"><title>N1&#45;&gt;N3</title>
<path fill="none" stroke="#2e3436" stroke-width="2" d="M348,-302.876C348,-288.701 348,-268.806 348,-252.944"/>
<polygon fill="#2e3436" stroke="#2e3436" points="348,-245.069 351.375,-252.568 348.5,-248.818 348.5,-252.568 348,-252.569 347.5,-252.569 347.5,-248.819 344.625,-252.569 348,-245.069 348,-245.069"/>
<text text-anchor="middle" x="366.5" y="-276.8" font-family="FreeSans" font-size="8.00" fill="#2e3436">KNOWS</text>
<text text-anchor="start" x="348" y="-266.8" font-family="FreeSans" font-size="8.00" fill="#2e3436">weight = 4</text>
</g>
<!-- N6 -->
<g id="node7" class="node"><title>N6</title>
<polygon fill="#ffffff" stroke="#ffffff" stroke-width="1.5" points="320.5,-1 387.5,-1 399.5,-13 399.5,-25 387.5,-37 320.5,-37 308.5,-25 308.5,-13 320.5,-1"/>
<path fill="#ffffff" stroke="#ffffff" stroke-width="1.5" d="M387.5,-1C393.5,-1 399.5,-7 399.5,-13"/>
<path fill="#ffffff" stroke="#ffffff" stroke-width="1.5" d="M399.5,-25C399.5,-31 393.5,-37 387.5,-37"/>
<path fill="#ffffff" stroke="#ffffff" stroke-width="1.5" d="M320.5,-37C314.5,-37 308.5,-31 308.5,-25"/>
<path fill="#ffffff" stroke="#ffffff" stroke-width="1.5" d="M308.5,-13C308.5,-7 314.5,-1 320.5,-1"/>
<polyline fill="none" stroke="#2e3436" stroke-width="1.5" points="320.5,-1 387.5,-1 "/>
<path fill="none" stroke="#2e3436" stroke-width="1.5" d="M387.5,-1C393.5,-1 399.5,-7 399.5,-13"/>
<polyline fill="none" stroke="#2e3436" stroke-width="1.5" points="399.5,-13 399.5,-25 "/>
<path fill="none" stroke="#2e3436" stroke-width="1.5" d="M399.5,-25C399.5,-31 393.5,-37 387.5,-37"/>
<polyline fill="none" stroke="#2e3436" stroke-width="1.5" points="387.5,-37 320.5,-37 "/>
<path fill="none" stroke="#2e3436" stroke-width="1.5" d="M320.5,-37C314.5,-37 308.5,-31 308.5,-25"/>
<polyline fill="none" stroke="#2e3436" stroke-width="1.5" points="308.5,-25 308.5,-13 "/>
<path fill="none" stroke="#2e3436" stroke-width="1.5" d="M308.5,-13C308.5,-7 314.5,-1 320.5,-1"/>
<text text-anchor="start" x="316.5" y="-16.8" font-family="FreeSans" font-size="8.00" fill="#1c2021">name = &#39;Daily Planet&#39;</text>
</g>
<!-- N1&#45;&gt;N6 -->
<g id="edge6" class="edge"><title>N1&#45;&gt;N6</title>
<path fill="none" stroke="#4e9a06" stroke-width="2" d="M373.504,-302.713C380.072,-297.202 386.758,-290.797 392,-284 431.9,-232.268 423.803,-207.037 430,-142 431.602,-125.187 435.233,-120.058 430,-104 421.82,-78.8968 412.672,-75.6156 395,-56 390.756,-51.2897 385.969,-46.5441 381.203,-42.0958"/>
<polygon fill="#4e9a06" stroke="#4e9a06" points="375.651,-37.0302 383.466,-39.592 378.758,-39.1884 381.529,-41.7159 381.192,-42.0853 380.855,-42.4546 378.084,-39.9271 378.917,-44.5785 375.651,-37.0302 375.651,-37.0302"/>
<text text-anchor="middle" x="449.5" y="-182.8" font-family="FreeSans" font-size="8.00" fill="#4e9a06">WORKSAT</text>
<text text-anchor="start" x="428" y="-172.8" font-family="FreeSans" font-size="8.00" fill="#4e9a06">weight = 2</text>
<text text-anchor="start" x="428" y="-162.8" font-family="FreeSans" font-size="8.00" fill="#4e9a06">activity = 45</text>
</g>
<!-- N2&#45;&gt;N6 -->
<g id="edge12" class="edge"><title>N2&#45;&gt;N6</title>
<path fill="none" stroke="#4e9a06" stroke-width="2" d="M201.263,-208.742C195.371,-191.737 187.26,-165.543 184,-142 178.406,-101.603 182.864,-79.7748 216,-56 229.713,-46.1606 267.846,-36.3263 300.559,-29.2722"/>
<polygon fill="#4e9a06" stroke="#4e9a06" points="308.307,-27.6307 301.669,-32.487 304.742,-28.8972 301.073,-29.6744 300.97,-29.1853 300.866,-28.6961 304.535,-27.9189 300.27,-25.8836 308.307,-27.6307 308.307,-27.6307"/>
<text text-anchor="middle" x="205.5" y="-130.8" font-family="FreeSans" font-size="8.00" fill="#4e9a06">WORKSAT</text>
<text text-anchor="start" x="184" y="-120.8" font-family="FreeSans" font-size="8.00" fill="#4e9a06">weight = 2</text>
<text text-anchor="start" x="184" y="-110.8" font-family="FreeSans" font-size="8.00" fill="#4e9a06">activity = 56</text>
</g>
<!-- N4 -->
<g id="node9" class="node"><title>N4</title>
<polygon fill="#ffffff" stroke="#ffffff" stroke-width="1.5" points="253.5,-105 320.5,-105 332.5,-117 332.5,-129 320.5,-141 253.5,-141 241.5,-129 241.5,-117 253.5,-105"/>
<path fill="#ffffff" stroke="#ffffff" stroke-width="1.5" d="M320.5,-105C326.5,-105 332.5,-111 332.5,-117"/>
<path fill="#ffffff" stroke="#ffffff" stroke-width="1.5" d="M332.5,-129C332.5,-135 326.5,-141 320.5,-141"/>
<path fill="#ffffff" stroke="#ffffff" stroke-width="1.5" d="M253.5,-141C247.5,-141 241.5,-135 241.5,-129"/>
<path fill="#ffffff" stroke="#ffffff" stroke-width="1.5" d="M241.5,-117C241.5,-111 247.5,-105 253.5,-105"/>
<polyline fill="none" stroke="#2e3436" stroke-width="1.5" points="253.5,-105 320.5,-105 "/>
<path fill="none" stroke="#2e3436" stroke-width="1.5" d="M320.5,-105C326.5,-105 332.5,-111 332.5,-117"/>
<polyline fill="none" stroke="#2e3436" stroke-width="1.5" points="332.5,-117 332.5,-129 "/>
<path fill="none" stroke="#2e3436" stroke-width="1.5" d="M332.5,-129C332.5,-135 326.5,-141 320.5,-141"/>
<polyline fill="none" stroke="#2e3436" stroke-width="1.5" points="320.5,-141 253.5,-141 "/>
<path fill="none" stroke="#2e3436" stroke-width="1.5" d="M253.5,-141C247.5,-141 241.5,-135 241.5,-129"/>
<polyline fill="none" stroke="#2e3436" stroke-width="1.5" points="241.5,-129 241.5,-117 "/>
<path fill="none" stroke="#2e3436" stroke-width="1.5" d="M241.5,-117C241.5,-111 247.5,-105 253.5,-105"/>
<text text-anchor="start" x="249.5" y="-120.8" font-family="FreeSans" font-size="8.00" fill="#1c2021">name = &#39;Perry White&#39;</text>
</g>
<!-- N2&#45;&gt;N4 -->
<g id="edge8" class="edge"><title>N2&#45;&gt;N4</title>
<path fill="none" stroke="#2e3436" stroke-width="2" d="M221.761,-208.885C234.709,-191.839 254.192,-166.19 268.496,-147.359"/>
<polygon fill="#2e3436" stroke="#2e3436" points="273.132,-141.257 271.283,-149.271 271.262,-144.545 268.993,-147.532 268.595,-147.229 268.197,-146.927 270.465,-143.94 265.908,-145.188 273.132,-141.257 273.132,-141.257"/>
<text text-anchor="middle" x="275.5" y="-177.8" font-family="FreeSans" font-size="8.00" fill="#2e3436">KNOWS</text>
<text text-anchor="start" x="257" y="-167.8" font-family="FreeSans" font-size="8.00" fill="#2e3436">weight = 4</text>
</g>
<!-- N5 -->
<g id="node11" class="node"><title>N5</title>
<polygon fill="#ffffff" stroke="#ffffff" stroke-width="1.5" points="11.5,-105 100.5,-105 112.5,-117 112.5,-129 100.5,-141 11.5,-141 -0.5,-129 -0.5,-117 11.5,-105"/>
<path fill="#ffffff" stroke="#ffffff" stroke-width="1.5" d="M100.5,-105C106.5,-105 112.5,-111 112.5,-117"/>
<path fill="#ffffff" stroke="#ffffff" stroke-width="1.5" d="M112.5,-129C112.5,-135 106.5,-141 100.5,-141"/>
<path fill="#ffffff" stroke="#ffffff" stroke-width="1.5" d="M11.5,-141C5.5,-141 -0.5,-135 -0.5,-129"/>
<path fill="#ffffff" stroke="#ffffff" stroke-width="1.5" d="M-0.5,-117C-0.5,-111 5.5,-105 11.5,-105"/>
<polyline fill="none" stroke="#2e3436" stroke-width="1.5" points="11.5,-105 100.5,-105 "/>
<path fill="none" stroke="#2e3436" stroke-width="1.5" d="M100.5,-105C106.5,-105 112.5,-111 112.5,-117"/>
<polyline fill="none" stroke="#2e3436" stroke-width="1.5" points="112.5,-117 112.5,-129 "/>
<path fill="none" stroke="#2e3436" stroke-width="1.5" d="M112.5,-129C112.5,-135 106.5,-141 100.5,-141"/>
<polyline fill="none" stroke="#2e3436" stroke-width="1.5" points="100.5,-141 11.5,-141 "/>
<path fill="none" stroke="#2e3436" stroke-width="1.5" d="M11.5,-141C5.5,-141 -0.5,-135 -0.5,-129"/>
<polyline fill="none" stroke="#2e3436" stroke-width="1.5" points="-0.5,-129 -0.5,-117 "/>
<path fill="none" stroke="#2e3436" stroke-width="1.5" d="M-0.5,-117C-0.5,-111 5.5,-105 11.5,-105"/>
<text text-anchor="start" x="7.5" y="-120.8" font-family="FreeSans" font-size="8.00" fill="#1c2021">name = &#39;Anderson Cooper&#39;</text>
</g>
<!-- N2&#45;&gt;N5 -->
<g id="edge10" class="edge"><title>N2&#45;&gt;N5</title>
<path fill="none" stroke="#2e3436" stroke-width="2" d="M166.487,-216.401C148.366,-210.502 127.53,-201.899 111,-190 95.1125,-178.563 81.1704,-161.451 71.2985,-147.383"/>
<polygon fill="#2e3436" stroke="#2e3436" points="67.0568,-141.165 74.0715,-145.459 69.5832,-143.981 71.6964,-147.079 71.2834,-147.361 70.8703,-147.643 68.7571,-144.545 68.4953,-149.263 67.0568,-141.165 67.0568,-141.165"/>
<text text-anchor="middle" x="129.5" y="-177.8" font-family="FreeSans" font-size="8.00" fill="#2e3436">KNOWS</text>
<text text-anchor="start" x="111" y="-167.8" font-family="FreeSans" font-size="8.00" fill="#2e3436">weight = 4</text>
</g>
<!-- N3&#45;&gt;N6 -->
<g id="edge16" class="edge"><title>N3&#45;&gt;N6</title>
<path fill="none" stroke="#4e9a06" stroke-width="2" d="M359.964,-208.889C363.186,-203.092 366.259,-196.488 368,-190 383.441,-132.465 383.729,-114.195 371,-56 370.153,-52.1284 368.862,-48.178 367.362,-44.3691"/>
<polygon fill="#4e9a06" stroke="#4e9a06" points="364.28,-37.2765 370.364,-42.8107 366.233,-40.5168 367.727,-43.9562 367.269,-44.1555 366.81,-44.3547 365.316,-40.9152 364.173,-45.5003 364.28,-37.2765 364.28,-37.2765"/>
<text text-anchor="middle" x="401.5" y="-130.8" font-family="FreeSans" font-size="8.00" fill="#4e9a06">WORKSAT</text>
<text text-anchor="start" x="380" y="-120.8" font-family="FreeSans" font-size="8.00" fill="#4e9a06">weight = 2</text>
<text text-anchor="start" x="380" y="-110.8" font-family="FreeSans" font-size="8.00" fill="#4e9a06">activity = 10</text>
</g>
<!-- N3&#45;&gt;N4 -->
<g id="edge14" class="edge"><title>N3&#45;&gt;N4</title>
<path fill="none" stroke="#2e3436" stroke-width="2" d="M337.375,-208.885C327.464,-191.988 312.594,-166.636 301.577,-147.852"/>
<polygon fill="#2e3436" stroke="#2e3436" points="297.708,-141.257 304.414,-146.019 300.037,-144.238 301.934,-147.473 301.503,-147.726 301.072,-147.979 299.174,-144.744 298.592,-149.434 297.708,-141.257 297.708,-141.257"/>
<text text-anchor="middle" x="342.5" y="-177.8" font-family="FreeSans" font-size="8.00" fill="#2e3436">KNOWS</text>
<text text-anchor="start" x="324" y="-167.8" font-family="FreeSans" font-size="8.00" fill="#2e3436">weight = 4</text>
</g>
<!-- N4&#45;&gt;N6 -->
<g id="edge18" class="edge"><title>N4&#45;&gt;N6</title>
<path fill="none" stroke="#4e9a06" stroke-width="2" d="M296.853,-104.725C304.413,-91.0481 315.332,-72.0196 326,-56 328.82,-51.7654 331.953,-47.3682 335.072,-43.1464"/>
<polygon fill="#4e9a06" stroke="#4e9a06" points="339.595,-37.1259 337.789,-45.1495 337.742,-40.4244 335.49,-43.4226 335.09,-43.1223 334.691,-42.8219 336.943,-39.8238 332.392,-41.095 339.595,-37.1259 339.595,-37.1259"/>
<text text-anchor="middle" x="347" y="-78.8" font-family="FreeSans" font-size="8.00" fill="#4e9a06">WORKSAT</text>
<text text-anchor="start" x="326" y="-68.8" font-family="FreeSans" font-size="8.00" fill="#4e9a06">weight = 2</text>
<text text-anchor="start" x="326" y="-58.8" font-family="FreeSans" font-size="8.00" fill="#4e9a06">activity = 6</text>
</g>
<!-- N7 -->
<g id="node17" class="node"><title>N7</title>
<polygon fill="#ffffff" stroke="#ffffff" stroke-width="1.5" points="160.5,-1 203.5,-1 215.5,-13 215.5,-25 203.5,-37 160.5,-37 148.5,-25 148.5,-13 160.5,-1"/>
<path fill="#ffffff" stroke="#ffffff" stroke-width="1.5" d="M203.5,-1C209.5,-1 215.5,-7 215.5,-13"/>
<path fill="#ffffff" stroke="#ffffff" stroke-width="1.5" d="M215.5,-25C215.5,-31 209.5,-37 203.5,-37"/>
<path fill="#ffffff" stroke="#ffffff" stroke-width="1.5" d="M160.5,-37C154.5,-37 148.5,-31 148.5,-25"/>
<path fill="#ffffff" stroke="#ffffff" stroke-width="1.5" d="M148.5,-13C148.5,-7 154.5,-1 160.5,-1"/>
<polyline fill="none" stroke="#2e3436" stroke-width="1.5" points="160.5,-1 203.5,-1 "/>
<path fill="none" stroke="#2e3436" stroke-width="1.5" d="M203.5,-1C209.5,-1 215.5,-7 215.5,-13"/>
<polyline fill="none" stroke="#2e3436" stroke-width="1.5" points="215.5,-13 215.5,-25 "/>
<path fill="none" stroke="#2e3436" stroke-width="1.5" d="M215.5,-25C215.5,-31 209.5,-37 203.5,-37"/>
<polyline fill="none" stroke="#2e3436" stroke-width="1.5" points="203.5,-37 160.5,-37 "/>
<path fill="none" stroke="#2e3436" stroke-width="1.5" d="M160.5,-37C154.5,-37 148.5,-31 148.5,-25"/>
<polyline fill="none" stroke="#2e3436" stroke-width="1.5" points="148.5,-25 148.5,-13 "/>
<path fill="none" stroke="#2e3436" stroke-width="1.5" d="M148.5,-13C148.5,-7 154.5,-1 160.5,-1"/>
<text text-anchor="start" x="156.5" y="-16.8" font-family="FreeSans" font-size="8.00" fill="#1c2021">name = &#39;CNN&#39;</text>
</g>
<!-- N4&#45;&gt;N7 -->
<g id="edge20" class="edge"><title>N4&#45;&gt;N7</title>
<path fill="none" stroke="#4e9a06" stroke-width="2" d="M268.71,-104.885C251.352,-87.6911 225.155,-61.7437 206.099,-42.8696"/>
<polygon fill="#4e9a06" stroke="#4e9a06" points="200.432,-37.2568 208.136,-40.1368 203.448,-39.5405 206.113,-42.1794 205.761,-42.5347 205.409,-42.8899 202.745,-40.251 203.386,-44.9326 200.432,-37.2568 200.432,-37.2568"/>
<text text-anchor="middle" x="268" y="-78.8" font-family="FreeSans" font-size="8.00" fill="#4e9a06">WORKSAT</text>
<text text-anchor="start" x="247" y="-68.8" font-family="FreeSans" font-size="8.00" fill="#4e9a06">weight = 2</text>
<text text-anchor="start" x="247" y="-58.8" font-family="FreeSans" font-size="8.00" fill="#4e9a06">activity = 3</text>
</g>
<!-- N5&#45;&gt;N7 -->
<g id="edge22" class="edge"><title>N5&#45;&gt;N7</title>
<path fill="none" stroke="#4e9a06" stroke-width="2" d="M66.1716,-104.897C75.1354,-90.2233 89.3402,-69.7885 106,-56 116.395,-47.3962 129.128,-40.1995 141.178,-34.5091"/>
<polygon fill="#4e9a06" stroke="#4e9a06" points="148.172,-31.3336 142.738,-37.5076 144.964,-33.3394 141.549,-34.8899 141.343,-34.4346 141.136,-33.9794 144.55,-32.4288 139.947,-31.3616 148.172,-31.3336 148.172,-31.3336"/>
<text text-anchor="middle" x="127" y="-78.8" font-family="FreeSans" font-size="8.00" fill="#4e9a06">WORKSAT</text>
<text text-anchor="start" x="106" y="-68.8" font-family="FreeSans" font-size="8.00" fill="#4e9a06">weight = 2</text>
<text text-anchor="start" x="106" y="-58.8" font-family="FreeSans" font-size="8.00" fill="#4e9a06">activity = 2</text>
</g>
</g>
</svg>
