<?xml version="1.0" encoding="UTF-8" standalone="no"?>
<!DOCTYPE svg PUBLIC "-//W3C//DTD SVG 1.1//EN"
 "http://www.w3.org/Graphics/SVG/1.1/DTD/svg11.dtd">
<!-- Generated by graphviz version 2.26.3 (20100126.1600)
 -->
<!-- Title: g Pages: 1 -->
<svg width="382pt" height="482pt"
 viewBox="0.00 0.00 382.00 482.00" xmlns="http://www.w3.org/2000/svg" xmlns:xlink="http://www.w3.org/1999/xlink">
<g id="graph1" class="graph" transform="scale(1 1) rotate(0) translate(4 478)">
<title>g</title>
<polygon fill="white" stroke="white" points="-4,5 -4,-478 379,-478 379,5 -4,5"/>
<!-- N1 -->
<g id="node1" class="node"><title>N1</title>
<polygon fill="#ffffff" stroke="#ffffff" stroke-width="1.5" points="145.5,-437 184.5,-437 196.5,-449 196.5,-461 184.5,-473 145.5,-473 133.5,-461 133.5,-449 145.5,-437"/>
<path fill="#ffffff" stroke="#ffffff" stroke-width="1.5" d="M184.5,-437C190.5,-437 196.5,-443 196.5,-449"/>
<path fill="#ffffff" stroke="#ffffff" stroke-width="1.5" d="M196.5,-461C196.5,-467 190.5,-473 184.5,-473"/>
<path fill="#ffffff" stroke="#ffffff" stroke-width="1.5" d="M145.5,-473C139.5,-473 133.5,-467 133.5,-461"/>
<path fill="#ffffff" stroke="#ffffff" stroke-width="1.5" d="M133.5,-449C133.5,-443 139.5,-437 145.5,-437"/>
<polyline fill="none" stroke="#2e3436" stroke-width="1.5" points="145.5,-437 184.5,-437 "/>
<path fill="none" stroke="#2e3436" stroke-width="1.5" d="M184.5,-437C190.5,-437 196.5,-443 196.5,-449"/>
<polyline fill="none" stroke="#2e3436" stroke-width="1.5" points="196.5,-449 196.5,-461 "/>
<path fill="none" stroke="#2e3436" stroke-width="1.5" d="M196.5,-461C196.5,-467 190.5,-473 184.5,-473"/>
<polyline fill="none" stroke="#2e3436" stroke-width="1.5" points="184.5,-473 145.5,-473 "/>
<path fill="none" stroke="#2e3436" stroke-width="1.5" d="M145.5,-473C139.5,-473 133.5,-467 133.5,-461"/>
<polyline fill="none" stroke="#2e3436" stroke-width="1.5" points="133.5,-461 133.5,-449 "/>
<path fill="none" stroke="#2e3436" stroke-width="1.5" d="M133.5,-449C133.5,-443 139.5,-437 145.5,-437"/>
<text text-anchor="middle" x="165" y="-461.8" font-family="FreeSans" font-size="8.00" fill="#1c2021">Node[1]</text>
<polyline fill="none" stroke="#2e3436" stroke-width="1.5" points="133.5,-455 196.5,-455 "/>
<text text-anchor="start" x="141.5" y="-443.8" font-family="FreeSans" font-size="8.00" fill="#1c2021">name = &#39;Bob&#39;</text>
</g>
<!-- N2 -->
<g id="node3" class="node"><title>N2</title>
<polygon fill="#ffffff" stroke="#ffffff" stroke-width="1.5" points="18,-323 80,-323 92,-335 92,-367 80,-379 18,-379 6,-367 6,-335 18,-323"/>
<path fill="#ffffff" stroke="#ffffff" stroke-width="1.5" d="M80,-323C86,-323 92,-329 92,-335"/>
<path fill="#ffffff" stroke="#ffffff" stroke-width="1.5" d="M92,-367C92,-373 86,-379 80,-379"/>
<path fill="#ffffff" stroke="#ffffff" stroke-width="1.5" d="M18,-379C12,-379 6,-373 6,-367"/>
<path fill="#ffffff" stroke="#ffffff" stroke-width="1.5" d="M6,-335C6,-329 12,-323 18,-323"/>
<polyline fill="none" stroke="#2e3436" stroke-width="1.5" points="18,-323 80,-323 "/>
<path fill="none" stroke="#2e3436" stroke-width="1.5" d="M80,-323C86,-323 92,-329 92,-335"/>
<polyline fill="none" stroke="#2e3436" stroke-width="1.5" points="92,-335 92,-367 "/>
<path fill="none" stroke="#2e3436" stroke-width="1.5" d="M92,-367C92,-373 86,-379 80,-379"/>
<polyline fill="none" stroke="#2e3436" stroke-width="1.5" points="80,-379 18,-379 "/>
<path fill="none" stroke="#2e3436" stroke-width="1.5" d="M18,-379C12,-379 6,-373 6,-367"/>
<polyline fill="none" stroke="#2e3436" stroke-width="1.5" points="6,-367 6,-335 "/>
<path fill="none" stroke="#2e3436" stroke-width="1.5" d="M6,-335C6,-329 12,-323 18,-323"/>
<text text-anchor="middle" x="49" y="-367.8" font-family="FreeSans" font-size="8.00" fill="#1c2021">Node[2]</text>
<polyline fill="none" stroke="#2e3436" stroke-width="1.5" points="6,-361 92,-361 "/>
<text text-anchor="start" x="14" y="-349.8" font-family="FreeSans" font-size="8.00" fill="#1c2021">text = &#39;bobs status1&#39;</text>
<text text-anchor="start" x="14" y="-339.8" font-family="FreeSans" font-size="8.00" fill="#1c2021">name = &#39;bob_s1&#39;</text>
<text text-anchor="start" x="14" y="-329.8" font-family="FreeSans" font-size="8.00" fill="#1c2021">date = 1</text>
</g>
<!-- N1&#45;&gt;N2 -->
<g id="edge2" class="edge"><title>N1&#45;&gt;N2</title>
<path fill="none" stroke="#2e3436" stroke-width="2" d="M144.794,-436.885C128.606,-422.371 105.462,-401.621 85.9772,-384.152"/>
<polygon fill="#2e3436" stroke="#2e3436" points="80.3244,-379.084 88.1617,-381.578 83.4503,-381.215 86.2425,-383.718 85.9087,-384.091 85.5749,-384.463 82.7828,-381.96 83.6557,-386.603 80.3244,-379.084 80.3244,-379.084"/>
<text text-anchor="middle" x="137.5" y="-405.8" font-family="FreeSans" font-size="8.00" fill="#2e3436">STATUS</text>
</g>
<!-- N4 -->
<g id="node5" class="node"><title>N4</title>
<polygon fill="#ffffff" stroke="#ffffff" stroke-width="1.5" points="144,-333 186,-333 198,-345 198,-357 186,-369 144,-369 132,-357 132,-345 144,-333"/>
<path fill="#ffffff" stroke="#ffffff" stroke-width="1.5" d="M186,-333C192,-333 198,-339 198,-345"/>
<path fill="#ffffff" stroke="#ffffff" stroke-width="1.5" d="M198,-357C198,-363 192,-369 186,-369"/>
<path fill="#ffffff" stroke="#ffffff" stroke-width="1.5" d="M144,-369C138,-369 132,-363 132,-357"/>
<path fill="#ffffff" stroke="#ffffff" stroke-width="1.5" d="M132,-345C132,-339 138,-333 144,-333"/>
<polyline fill="none" stroke="#2e3436" stroke-width="1.5" points="144,-333 186,-333 "/>
<path fill="none" stroke="#2e3436" stroke-width="1.5" d="M186,-333C192,-333 198,-339 198,-345"/>
<polyline fill="none" stroke="#2e3436" stroke-width="1.5" points="198,-345 198,-357 "/>
<path fill="none" stroke="#2e3436" stroke-width="1.5" d="M198,-357C198,-363 192,-369 186,-369"/>
<polyline fill="none" stroke="#2e3436" stroke-width="1.5" points="186,-369 144,-369 "/>
<path fill="none" stroke="#2e3436" stroke-width="1.5" d="M144,-369C138,-369 132,-363 132,-357"/>
<polyline fill="none" stroke="#2e3436" stroke-width="1.5" points="132,-357 132,-345 "/>
<path fill="none" stroke="#2e3436" stroke-width="1.5" d="M132,-345C132,-339 138,-333 144,-333"/>
<text text-anchor="middle" x="165" y="-357.8" font-family="FreeSans" font-size="8.00" fill="#1c2021">Node[4]</text>
<polyline fill="none" stroke="#2e3436" stroke-width="1.5" points="132,-351 198,-351 "/>
<text text-anchor="start" x="140" y="-339.8" font-family="FreeSans" font-size="8.00" fill="#1c2021">name = &#39;Alice&#39;</text>
</g>
<!-- N1&#45;&gt;N4 -->
<g id="edge4" class="edge"><title>N1&#45;&gt;N4</title>
<path fill="none" stroke="#4e9a06" stroke-width="2" d="M165,-436.885C165,-420.284 165,-395.523 165,-376.847"/>
<polygon fill="#4e9a06" stroke="#4e9a06" points="165,-369.257 168.375,-376.757 165.5,-373.007 165.5,-376.757 165,-376.757 164.5,-376.757 164.5,-373.007 161.625,-376.757 165,-369.257 165,-369.257"/>
<text text-anchor="middle" x="207" y="-410.8" font-family="FreeSans" font-size="8.00" fill="#4e9a06">FRIEND</text>
<text text-anchor="start" x="165" y="-400.8" font-family="FreeSans" font-size="8.00" fill="#4e9a06">status = &#39;CONFIRMED&#39;</text>
</g>
<!-- N3 -->
<g id="node7" class="node"><title>N3</title>
<polygon fill="#ffffff" stroke="#ffffff" stroke-width="1.5" points="12,-209 74,-209 86,-221 86,-253 74,-265 12,-265 0,-253 0,-221 12,-209"/>
<path fill="#ffffff" stroke="#ffffff" stroke-width="1.5" d="M74,-209C80,-209 86,-215 86,-221"/>
<path fill="#ffffff" stroke="#ffffff" stroke-width="1.5" d="M86,-253C86,-259 80,-265 74,-265"/>
<path fill="#ffffff" stroke="#ffffff" stroke-width="1.5" d="M12,-265C6,-265 0,-259 0,-253"/>
<path fill="#ffffff" stroke="#ffffff" stroke-width="1.5" d="M0,-221C0,-215 6,-209 12,-209"/>
<polyline fill="none" stroke="#2e3436" stroke-width="1.5" points="12,-209 74,-209 "/>
<path fill="none" stroke="#2e3436" stroke-width="1.5" d="M74,-209C80,-209 86,-215 86,-221"/>
<polyline fill="none" stroke="#2e3436" stroke-width="1.5" points="86,-221 86,-253 "/>
<path fill="none" stroke="#2e3436" stroke-width="1.5" d="M86,-253C86,-259 80,-265 74,-265"/>
<polyline fill="none" stroke="#2e3436" stroke-width="1.5" points="74,-265 12,-265 "/>
<path fill="none" stroke="#2e3436" stroke-width="1.5" d="M12,-265C6,-265 0,-259 0,-253"/>
<polyline fill="none" stroke="#2e3436" stroke-width="1.5" points="0,-253 0,-221 "/>
<path fill="none" stroke="#2e3436" stroke-width="1.5" d="M0,-221C0,-215 6,-209 12,-209"/>
<text text-anchor="middle" x="43" y="-253.8" font-family="FreeSans" font-size="8.00" fill="#1c2021">Node[3]</text>
<polyline fill="none" stroke="#2e3436" stroke-width="1.5" points="0,-247 86,-247 "/>
<text text-anchor="start" x="8" y="-235.8" font-family="FreeSans" font-size="8.00" fill="#1c2021">text = &#39;bobs status2&#39;</text>
<text text-anchor="start" x="8" y="-225.8" font-family="FreeSans" font-size="8.00" fill="#1c2021">name = &#39;bob_s2&#39;</text>
<text text-anchor="start" x="8" y="-215.8" font-family="FreeSans" font-size="8.00" fill="#1c2021">date = 4</text>
</g>
<!-- N2&#45;&gt;N3 -->
<g id="edge6" class="edge"><title>N2&#45;&gt;N3</title>
<path fill="none" stroke="#a40000" stroke-width="2" d="M47.5169,-322.82C46.7236,-307.748 45.7383,-289.027 44.8905,-272.92"/>
<polygon fill="#a40000" stroke="#a40000" points="44.4869,-265.251 48.2515,-272.563 45.1833,-268.969 45.3805,-272.714 44.8812,-272.74 44.3819,-272.767 44.1847,-269.022 41.5108,-272.918 44.4869,-265.251 44.4869,-265.251"/>
<text text-anchor="middle" x="58" y="-291.8" font-family="FreeSans" font-size="8.00" fill="#a40000">NEXT</text>
</g>
<!-- N5 -->
<g id="node9" class="node"><title>N5</title>
<polygon fill="#ffffff" stroke="#ffffff" stroke-width="1.5" points="127,-209 193,-209 205,-221 205,-253 193,-265 127,-265 115,-253 115,-221 127,-209"/>
<path fill="#ffffff" stroke="#ffffff" stroke-width="1.5" d="M193,-209C199,-209 205,-215 205,-221"/>
<path fill="#ffffff" stroke="#ffffff" stroke-width="1.5" d="M205,-253C205,-259 199,-265 193,-265"/>
<path fill="#ffffff" stroke="#ffffff" stroke-width="1.5" d="M127,-265C121,-265 115,-259 115,-253"/>
<path fill="#ffffff" stroke="#ffffff" stroke-width="1.5" d="M115,-221C115,-215 121,-209 127,-209"/>
<polyline fill="none" stroke="#2e3436" stroke-width="1.5" points="127,-209 193,-209 "/>
<path fill="none" stroke="#2e3436" stroke-width="1.5" d="M193,-209C199,-209 205,-215 205,-221"/>
<polyline fill="none" stroke="#2e3436" stroke-width="1.5" points="205,-221 205,-253 "/>
<path fill="none" stroke="#2e3436" stroke-width="1.5" d="M205,-253C205,-259 199,-265 193,-265"/>
<polyline fill="none" stroke="#2e3436" stroke-width="1.5" points="193,-265 127,-265 "/>
<path fill="none" stroke="#2e3436" stroke-width="1.5" d="M127,-265C121,-265 115,-259 115,-253"/>
<polyline fill="none" stroke="#2e3436" stroke-width="1.5" points="115,-253 115,-221 "/>
<path fill="none" stroke="#2e3436" stroke-width="1.5" d="M115,-221C115,-215 121,-209 127,-209"/>
<text text-anchor="middle" x="160" y="-253.8" font-family="FreeSans" font-size="8.00" fill="#1c2021">Node[5]</text>
<polyline fill="none" stroke="#2e3436" stroke-width="1.5" points="115,-247 205,-247 "/>
<text text-anchor="start" x="123" y="-235.8" font-family="FreeSans" font-size="8.00" fill="#1c2021">text = &#39;Alices status1&#39;</text>
<text text-anchor="start" x="123" y="-225.8" font-family="FreeSans" font-size="8.00" fill="#1c2021">name = &#39;alice_s1&#39;</text>
<text text-anchor="start" x="123" y="-215.8" font-family="FreeSans" font-size="8.00" fill="#1c2021">date = 2</text>
</g>
<!-- N4&#45;&gt;N5 -->
<g id="edge8" class="edge"><title>N4&#45;&gt;N5</title>
<path fill="none" stroke="#2e3436" stroke-width="2" d="M156.201,-332.701C152.579,-324.186 148.811,-313.795 147,-304 145.111,-293.787 146.04,-282.713 148.078,-272.564"/>
<polygon fill="#2e3436" stroke="#2e3436" points="149.825,-265.014 151.423,-273.082 149.467,-268.78 148.622,-272.434 148.135,-272.321 147.647,-272.208 148.493,-268.555 144.846,-271.56 149.825,-265.014 149.825,-265.014"/>
<text text-anchor="middle" x="163.5" y="-291.8" font-family="FreeSans" font-size="8.00" fill="#2e3436">STATUS</text>
</g>
<!-- N7 -->
<g id="node11" class="node"><title>N7</title>
<polygon fill="#ffffff" stroke="#ffffff" stroke-width="1.5" points="266,-219 304,-219 316,-231 316,-243 304,-255 266,-255 254,-243 254,-231 266,-219"/>
<path fill="#ffffff" stroke="#ffffff" stroke-width="1.5" d="M304,-219C310,-219 316,-225 316,-231"/>
<path fill="#ffffff" stroke="#ffffff" stroke-width="1.5" d="M316,-243C316,-249 310,-255 304,-255"/>
<path fill="#ffffff" stroke="#ffffff" stroke-width="1.5" d="M266,-255C260,-255 254,-249 254,-243"/>
<path fill="#ffffff" stroke="#ffffff" stroke-width="1.5" d="M254,-231C254,-225 260,-219 266,-219"/>
<polyline fill="none" stroke="#2e3436" stroke-width="1.5" points="266,-219 304,-219 "/>
<path fill="none" stroke="#2e3436" stroke-width="1.5" d="M304,-219C310,-219 316,-225 316,-231"/>
<polyline fill="none" stroke="#2e3436" stroke-width="1.5" points="316,-231 316,-243 "/>
<path fill="none" stroke="#2e3436" stroke-width="1.5" d="M316,-243C316,-249 310,-255 304,-255"/>
<polyline fill="none" stroke="#2e3436" stroke-width="1.5" points="304,-255 266,-255 "/>
<path fill="none" stroke="#2e3436" stroke-width="1.5" d="M266,-255C260,-255 254,-249 254,-243"/>
<polyline fill="none" stroke="#2e3436" stroke-width="1.5" points="254,-243 254,-231 "/>
<path fill="none" stroke="#2e3436" stroke-width="1.5" d="M254,-231C254,-225 260,-219 266,-219"/>
<text text-anchor="middle" x="285" y="-243.8" font-family="FreeSans" font-size="8.00" fill="#1c2021">Node[7]</text>
<polyline fill="none" stroke="#2e3436" stroke-width="1.5" points="254,-237 316,-237 "/>
<text text-anchor="start" x="262" y="-225.8" font-family="FreeSans" font-size="8.00" fill="#1c2021">name = &#39;Joe&#39;</text>
</g>
<!-- N4&#45;&gt;N7 -->
<g id="edge10" class="edge"><title>N4&#45;&gt;N7</title>
<path fill="none" stroke="#4e9a06" stroke-width="2" d="M175.75,-332.858C184.793,-318.546 198.675,-298.625 214,-284 223.923,-274.53 235.98,-265.75 247.321,-258.405"/>
<polygon fill="#4e9a06" stroke="#4e9a06" points="253.894,-254.251 249.357,-261.111 250.991,-256.677 247.821,-258.68 247.554,-258.258 247.287,-257.835 250.457,-255.832 245.751,-255.405 253.894,-254.251 253.894,-254.251"/>
<text text-anchor="middle" x="249" y="-296.8" font-family="FreeSans" font-size="8.00" fill="#4e9a06">FRIEND</text>
<text text-anchor="start" x="214" y="-286.8" font-family="FreeSans" font-size="8.00" fill="#4e9a06">status = &#39;PENDING&#39;</text>
</g>
<!-- N6 -->
<g id="node13" class="node"><title>N6</title>
<polygon fill="#ffffff" stroke="#ffffff" stroke-width="1.5" points="127,-105 193,-105 205,-117 205,-149 193,-161 127,-161 115,-149 115,-117 127,-105"/>
<path fill="#ffffff" stroke="#ffffff" stroke-width="1.5" d="M193,-105C199,-105 205,-111 205,-117"/>
<path fill="#ffffff" stroke="#ffffff" stroke-width="1.5" d="M205,-149C205,-155 199,-161 193,-161"/>
<path fill="#ffffff" stroke="#ffffff" stroke-width="1.5" d="M127,-161C121,-161 115,-155 115,-149"/>
<path fill="#ffffff" stroke="#ffffff" stroke-width="1.5" d="M115,-117C115,-111 121,-105 127,-105"/>
<polyline fill="none" stroke="#2e3436" stroke-width="1.5" points="127,-105 193,-105 "/>
<path fill="none" stroke="#2e3436" stroke-width="1.5" d="M193,-105C199,-105 205,-111 205,-117"/>
<polyline fill="none" stroke="#2e3436" stroke-width="1.5" points="205,-117 205,-149 "/>
<path fill="none" stroke="#2e3436" stroke-width="1.5" d="M205,-149C205,-155 199,-161 193,-161"/>
<polyline fill="none" stroke="#2e3436" stroke-width="1.5" points="193,-161 127,-161 "/>
<path fill="none" stroke="#2e3436" stroke-width="1.5" d="M127,-161C121,-161 115,-155 115,-149"/>
<polyline fill="none" stroke="#2e3436" stroke-width="1.5" points="115,-149 115,-117 "/>
<path fill="none" stroke="#2e3436" stroke-width="1.5" d="M115,-117C115,-111 121,-105 127,-105"/>
<text text-anchor="middle" x="160" y="-149.8" font-family="FreeSans" font-size="8.00" fill="#1c2021">Node[6]</text>
<polyline fill="none" stroke="#2e3436" stroke-width="1.5" points="115,-143 205,-143 "/>
<text text-anchor="start" x="123" y="-131.8" font-family="FreeSans" font-size="8.00" fill="#1c2021">text = &#39;Alices status2&#39;</text>
<text text-anchor="start" x="123" y="-121.8" font-family="FreeSans" font-size="8.00" fill="#1c2021">name = &#39;alice_s2&#39;</text>
<text text-anchor="start" x="123" y="-111.8" font-family="FreeSans" font-size="8.00" fill="#1c2021">date = 5</text>
</g>
<!-- N5&#45;&gt;N6 -->
<g id="edge12" class="edge"><title>N5&#45;&gt;N6</title>
<path fill="none" stroke="#a40000" stroke-width="2" d="M160,-208.856C160,-196.486 160,-181.815 160,-168.688"/>
<polygon fill="#a40000" stroke="#a40000" points="160,-161.166 163.375,-168.666 160.5,-164.916 160.5,-168.666 160,-168.666 159.5,-168.666 159.5,-164.916 156.625,-168.666 160,-161.166 160,-161.166"/>
<text text-anchor="middle" x="171" y="-182.8" font-family="FreeSans" font-size="8.00" fill="#a40000">NEXT</text>
</g>
<!-- N7&#45;&gt;N1 -->
<g id="edge16" class="edge"><title>N7&#45;&gt;N1</title>
<path fill="none" stroke="#4e9a06" stroke-width="2" d="M287.855,-255.021C292.439,-290.846 297.156,-371.553 256,-418 242.64,-433.078 222.234,-442.119 204.129,-447.484"/>
<polygon fill="#4e9a06" stroke="#4e9a06" points="196.538,-449.565 202.879,-444.327 200.022,-448.092 203.639,-447.1 203.771,-447.582 203.903,-448.065 200.287,-449.056 204.663,-450.837 196.538,-449.565 196.538,-449.565"/>
<text text-anchor="middle" x="332" y="-353.8" font-family="FreeSans" font-size="8.00" fill="#4e9a06">FRIEND</text>
<text text-anchor="start" x="290" y="-343.8" font-family="FreeSans" font-size="8.00" fill="#4e9a06">status = &#39;CONFIRMED&#39;</text>
</g>
<!-- N8 -->
<g id="node15" class="node"><title>N8</title>
<polygon fill="#ffffff" stroke="#ffffff" stroke-width="1.5" points="255.5,-105 314.5,-105 326.5,-117 326.5,-149 314.5,-161 255.5,-161 243.5,-149 243.5,-117 255.5,-105"/>
<path fill="#ffffff" stroke="#ffffff" stroke-width="1.5" d="M314.5,-105C320.5,-105 326.5,-111 326.5,-117"/>
<path fill="#ffffff" stroke="#ffffff" stroke-width="1.5" d="M326.5,-149C326.5,-155 320.5,-161 314.5,-161"/>
<path fill="#ffffff" stroke="#ffffff" stroke-width="1.5" d="M255.5,-161C249.5,-161 243.5,-155 243.5,-149"/>
<path fill="#ffffff" stroke="#ffffff" stroke-width="1.5" d="M243.5,-117C243.5,-111 249.5,-105 255.5,-105"/>
<polyline fill="none" stroke="#2e3436" stroke-width="1.5" points="255.5,-105 314.5,-105 "/>
<path fill="none" stroke="#2e3436" stroke-width="1.5" d="M314.5,-105C320.5,-105 326.5,-111 326.5,-117"/>
<polyline fill="none" stroke="#2e3436" stroke-width="1.5" points="326.5,-117 326.5,-149 "/>
<path fill="none" stroke="#2e3436" stroke-width="1.5" d="M326.5,-149C326.5,-155 320.5,-161 314.5,-161"/>
<polyline fill="none" stroke="#2e3436" stroke-width="1.5" points="314.5,-161 255.5,-161 "/>
<path fill="none" stroke="#2e3436" stroke-width="1.5" d="M255.5,-161C249.5,-161 243.5,-155 243.5,-149"/>
<polyline fill="none" stroke="#2e3436" stroke-width="1.5" points="243.5,-149 243.5,-117 "/>
<path fill="none" stroke="#2e3436" stroke-width="1.5" d="M243.5,-117C243.5,-111 249.5,-105 255.5,-105"/>
<text text-anchor="middle" x="285" y="-149.8" font-family="FreeSans" font-size="8.00" fill="#1c2021">Node[8]</text>
<polyline fill="none" stroke="#2e3436" stroke-width="1.5" points="243.5,-143 326.5,-143 "/>
<text text-anchor="start" x="251.5" y="-131.8" font-family="FreeSans" font-size="8.00" fill="#1c2021">text = &#39;Joe status1&#39;</text>
<text text-anchor="start" x="251.5" y="-121.8" font-family="FreeSans" font-size="8.00" fill="#1c2021">name = &#39;joe_s1&#39;</text>
<text text-anchor="start" x="251.5" y="-111.8" font-family="FreeSans" font-size="8.00" fill="#1c2021">date = 3</text>
</g>
<!-- N7&#45;&gt;N8 -->
<g id="edge14" class="edge"><title>N7&#45;&gt;N8</title>
<path fill="none" stroke="#2e3436" stroke-width="2" d="M285,-218.885C285,-205.057 285,-185.566 285,-168.647"/>
<polygon fill="#2e3436" stroke="#2e3436" points="285,-161.084 288.375,-168.584 285.5,-164.834 285.5,-168.584 285,-168.584 284.5,-168.584 284.5,-164.834 281.625,-168.584 285,-161.084 285,-161.084"/>
<text text-anchor="middle" x="301.5" y="-182.8" font-family="FreeSans" font-size="8.00" fill="#2e3436">STATUS</text>
</g>
<!-- N9 -->
<g id="node18" class="node"><title>N9</title>
<polygon fill="#ffffff" stroke="#ffffff" stroke-width="1.5" points="255.5,-1 314.5,-1 326.5,-13 326.5,-45 314.5,-57 255.5,-57 243.5,-45 243.5,-13 255.5,-1"/>
<path fill="#ffffff" stroke="#ffffff" stroke-width="1.5" d="M314.5,-1C320.5,-1 326.5,-7 326.5,-13"/>
<path fill="#ffffff" stroke="#ffffff" stroke-width="1.5" d="M326.5,-45C326.5,-51 320.5,-57 314.5,-57"/>
<path fill="#ffffff" stroke="#ffffff" stroke-width="1.5" d="M255.5,-57C249.5,-57 243.5,-51 243.5,-45"/>
<path fill="#ffffff" stroke="#ffffff" stroke-width="1.5" d="M243.5,-13C243.5,-7 249.5,-1 255.5,-1"/>
<polyline fill="none" stroke="#2e3436" stroke-width="1.5" points="255.5,-1 314.5,-1 "/>
<path fill="none" stroke="#2e3436" stroke-width="1.5" d="M314.5,-1C320.5,-1 326.5,-7 326.5,-13"/>
<polyline fill="none" stroke="#2e3436" stroke-width="1.5" points="326.5,-13 326.5,-45 "/>
<path fill="none" stroke="#2e3436" stroke-width="1.5" d="M326.5,-45C326.5,-51 320.5,-57 314.5,-57"/>
<polyline fill="none" stroke="#2e3436" stroke-width="1.5" points="314.5,-57 255.5,-57 "/>
<path fill="none" stroke="#2e3436" stroke-width="1.5" d="M255.5,-57C249.5,-57 243.5,-51 243.5,-45"/>
<polyline fill="none" stroke="#2e3436" stroke-width="1.5" points="243.5,-45 243.5,-13 "/>
<path fill="none" stroke="#2e3436" stroke-width="1.5" d="M243.5,-13C243.5,-7 249.5,-1 255.5,-1"/>
<text text-anchor="middle" x="285" y="-45.8" font-family="FreeSans" font-size="8.00" fill="#1c2021">Node[9]</text>
<polyline fill="none" stroke="#2e3436" stroke-width="1.5" points="243.5,-39 326.5,-39 "/>
<text text-anchor="start" x="251.5" y="-27.8" font-family="FreeSans" font-size="8.00" fill="#1c2021">text = &#39;Joe status2&#39;</text>
<text text-anchor="start" x="251.5" y="-17.8" font-family="FreeSans" font-size="8.00" fill="#1c2021">name = &#39;joe_s2&#39;</text>
<text text-anchor="start" x="251.5" y="-7.8" font-family="FreeSans" font-size="8.00" fill="#1c2021">date = 6</text>
</g>
<!-- N8&#45;&gt;N9 -->
<g id="edge18" class="edge"><title>N8&#45;&gt;N9</title>
<path fill="none" stroke="#a40000" stroke-width="2" d="M285,-104.856C285,-92.4855 285,-77.8152 285,-64.6881"/>
<polygon fill="#a40000" stroke="#a40000" points="285,-57.1664 288.375,-64.6663 285.5,-60.9164 285.5,-64.6664 285,-64.6664 284.5,-64.6664 284.5,-60.9164 281.625,-64.6664 285,-57.1664 285,-57.1664"/>
<text text-anchor="middle" x="296" y="-78.8" font-family="FreeSans" font-size="8.00" fill="#a40000">NEXT</text>
</g>
</g>
</svg>
