<?xml version="1.0" encoding="UTF-8" standalone="no"?>
<!DOCTYPE svg PUBLIC "-//W3C//DTD SVG 1.1//EN"
 "http://www.w3.org/Graphics/SVG/1.1/DTD/svg11.dtd">
<!-- Generated by graphviz version 2.26.3 (20100126.1600)
 -->
<!-- Title: g Pages: 1 -->
<svg width="311pt" height="130pt"
 viewBox="0.00 0.00 311.00 130.00" xmlns="http://www.w3.org/2000/svg" xmlns:xlink="http://www.w3.org/1999/xlink">
<g id="graph1" class="graph" transform="scale(1 1) rotate(0) translate(4 126)">
<title>g</title>
<polygon fill="white" stroke="white" points="-4,5 -4,-126 308,-126 308,5 -4,5"/>
<!-- N0 -->
<g id="node1" class="node"><title>N0</title>
<polygon fill="#ffffff" stroke="#ffffff" stroke-width="1.5" points="12,-85 42,-85 54,-97 54,-109 42,-121 12,-121 0,-109 0,-97 12,-85"/>
<path fill="#ffffff" stroke="#ffffff" stroke-width="1.5" d="M42,-85C48,-85 54,-91 54,-97"/>
<path fill="#ffffff" stroke="#ffffff" stroke-width="1.5" d="M54,-109C54,-115 48,-121 42,-121"/>
<path fill="#ffffff" stroke="#ffffff" stroke-width="1.5" d="M12,-121C6,-121 0,-115 0,-109"/>
<path fill="#ffffff" stroke="#ffffff" stroke-width="1.5" d="M0,-97C0,-91 6,-85 12,-85"/>
<polyline fill="none" stroke="#2e3436" stroke-width="1.5" points="12,-85 42,-85 "/>
<path fill="none" stroke="#2e3436" stroke-width="1.5" d="M42,-85C48,-85 54,-91 54,-97"/>
<polyline fill="none" stroke="#2e3436" stroke-width="1.5" points="54,-97 54,-109 "/>
<path fill="none" stroke="#2e3436" stroke-width="1.5" d="M54,-109C54,-115 48,-121 42,-121"/>
<polyline fill="none" stroke="#2e3436" stroke-width="1.5" points="42,-121 12,-121 "/>
<path fill="none" stroke="#2e3436" stroke-width="1.5" d="M12,-121C6,-121 0,-115 0,-109"/>
<polyline fill="none" stroke="#2e3436" stroke-width="1.5" points="0,-109 0,-97 "/>
<path fill="none" stroke="#2e3436" stroke-width="1.5" d="M0,-97C0,-91 6,-85 12,-85"/>
<text text-anchor="middle" x="27" y="-109.8" font-family="FreeSans" font-size="8.00" fill="#1c2021">Node[0]</text>
<polyline fill="none" stroke="#2e3436" stroke-width="1.5" points="0,-103 54,-103 "/>
<text text-anchor="middle" x="27" y="-91.8" font-family="FreeSans" font-size="8.00" fill="#1c2021"> </text>
</g>
<!-- N31 -->
<g id="node2" class="node"><title>N31</title>
<polygon fill="#ffffff" stroke="#ffffff" stroke-width="1.5" points="88.5,-1 131.5,-1 143.5,-13 143.5,-25 131.5,-37 88.5,-37 76.5,-25 76.5,-13 88.5,-1"/>
<path fill="#ffffff" stroke="#ffffff" stroke-width="1.5" d="M131.5,-1C137.5,-1 143.5,-7 143.5,-13"/>
<path fill="#ffffff" stroke="#ffffff" stroke-width="1.5" d="M143.5,-25C143.5,-31 137.5,-37 131.5,-37"/>
<path fill="#ffffff" stroke="#ffffff" stroke-width="1.5" d="M88.5,-37C82.5,-37 76.5,-31 76.5,-25"/>
<path fill="#ffffff" stroke="#ffffff" stroke-width="1.5" d="M76.5,-13C76.5,-7 82.5,-1 88.5,-1"/>
<polyline fill="none" stroke="#2e3436" stroke-width="1.5" points="88.5,-1 131.5,-1 "/>
<path fill="none" stroke="#2e3436" stroke-width="1.5" d="M131.5,-1C137.5,-1 143.5,-7 143.5,-13"/>
<polyline fill="none" stroke="#2e3436" stroke-width="1.5" points="143.5,-13 143.5,-25 "/>
<path fill="none" stroke="#2e3436" stroke-width="1.5" d="M143.5,-25C143.5,-31 137.5,-37 131.5,-37"/>
<polyline fill="none" stroke="#2e3436" stroke-width="1.5" points="131.5,-37 88.5,-37 "/>
<path fill="none" stroke="#2e3436" stroke-width="1.5" d="M88.5,-37C82.5,-37 76.5,-31 76.5,-25"/>
<polyline fill="none" stroke="#2e3436" stroke-width="1.5" points="76.5,-25 76.5,-13 "/>
<path fill="none" stroke="#2e3436" stroke-width="1.5" d="M76.5,-13C76.5,-7 82.5,-1 88.5,-1"/>
<text text-anchor="middle" x="110" y="-25.8" font-family="FreeSans" font-size="8.00" fill="#1c2021">Node[31]</text>
<polyline fill="none" stroke="#2e3436" stroke-width="1.5" points="76.5,-19 143.5,-19 "/>
<text text-anchor="start" x="84.5" y="-7.8" font-family="FreeSans" font-size="8.00" fill="#1c2021">name = &#39;John&#39;</text>
</g>
<!-- N32 -->
<g id="node3" class="node"><title>N32</title>
<polygon fill="#ffffff" stroke="#ffffff" stroke-width="1.5" points="95,-85 125,-85 137,-97 137,-109 125,-121 95,-121 83,-109 83,-97 95,-85"/>
<path fill="#ffffff" stroke="#ffffff" stroke-width="1.5" d="M125,-85C131,-85 137,-91 137,-97"/>
<path fill="#ffffff" stroke="#ffffff" stroke-width="1.5" d="M137,-109C137,-115 131,-121 125,-121"/>
<path fill="#ffffff" stroke="#ffffff" stroke-width="1.5" d="M95,-121C89,-121 83,-115 83,-109"/>
<path fill="#ffffff" stroke="#ffffff" stroke-width="1.5" d="M83,-97C83,-91 89,-85 95,-85"/>
<polyline fill="none" stroke="#2e3436" stroke-width="1.5" points="95,-85 125,-85 "/>
<path fill="none" stroke="#2e3436" stroke-width="1.5" d="M125,-85C131,-85 137,-91 137,-97"/>
<polyline fill="none" stroke="#2e3436" stroke-width="1.5" points="137,-97 137,-109 "/>
<path fill="none" stroke="#2e3436" stroke-width="1.5" d="M137,-109C137,-115 131,-121 125,-121"/>
<polyline fill="none" stroke="#2e3436" stroke-width="1.5" points="125,-121 95,-121 "/>
<path fill="none" stroke="#2e3436" stroke-width="1.5" d="M95,-121C89,-121 83,-115 83,-109"/>
<polyline fill="none" stroke="#2e3436" stroke-width="1.5" points="83,-109 83,-97 "/>
<path fill="none" stroke="#2e3436" stroke-width="1.5" d="M83,-97C83,-91 89,-85 95,-85"/>
<text text-anchor="middle" x="110" y="-109.8" font-family="FreeSans" font-size="8.00" fill="#1c2021">Node[32]</text>
<polyline fill="none" stroke="#2e3436" stroke-width="1.5" points="83,-103 137,-103 "/>
<text text-anchor="start" x="91" y="-91.8" font-family="FreeSans" font-size="8.00" fill="#1c2021">age = 1</text>
</g>
<!-- N32&#45;&gt;N31 -->
<g id="edge2" class="edge"><title>N32&#45;&gt;N31</title>
<path fill="none" stroke="#2e3436" stroke-width="2" d="M110,-84.7733C110,-73.1053 110,-57.7874 110,-44.8699"/>
<polygon fill="#2e3436" stroke="#2e3436" points="110,-37.1912 113.375,-44.6911 110.5,-40.9412 110.5,-44.6912 110,-44.6912 109.5,-44.6912 109.5,-40.9412 106.625,-44.6912 110,-37.1912 110,-37.1912"/>
<text text-anchor="middle" x="122" y="-58.8" font-family="FreeSans" font-size="8.00" fill="#2e3436">knows</text>
</g>
<!-- N33 -->
<g id="node5" class="node"><title>N33</title>
<polygon fill="#ffffff" stroke="#ffffff" stroke-width="1.5" points="178,-85 208,-85 220,-97 220,-109 208,-121 178,-121 166,-109 166,-97 178,-85"/>
<path fill="#ffffff" stroke="#ffffff" stroke-width="1.5" d="M208,-85C214,-85 220,-91 220,-97"/>
<path fill="#ffffff" stroke="#ffffff" stroke-width="1.5" d="M220,-109C220,-115 214,-121 208,-121"/>
<path fill="#ffffff" stroke="#ffffff" stroke-width="1.5" d="M178,-121C172,-121 166,-115 166,-109"/>
<path fill="#ffffff" stroke="#ffffff" stroke-width="1.5" d="M166,-97C166,-91 172,-85 178,-85"/>
<polyline fill="none" stroke="#2e3436" stroke-width="1.5" points="178,-85 208,-85 "/>
<path fill="none" stroke="#2e3436" stroke-width="1.5" d="M208,-85C214,-85 220,-91 220,-97"/>
<polyline fill="none" stroke="#2e3436" stroke-width="1.5" points="220,-97 220,-109 "/>
<path fill="none" stroke="#2e3436" stroke-width="1.5" d="M220,-109C220,-115 214,-121 208,-121"/>
<polyline fill="none" stroke="#2e3436" stroke-width="1.5" points="208,-121 178,-121 "/>
<path fill="none" stroke="#2e3436" stroke-width="1.5" d="M178,-121C172,-121 166,-115 166,-109"/>
<polyline fill="none" stroke="#2e3436" stroke-width="1.5" points="166,-109 166,-97 "/>
<path fill="none" stroke="#2e3436" stroke-width="1.5" d="M166,-97C166,-91 172,-85 178,-85"/>
<text text-anchor="middle" x="193" y="-109.8" font-family="FreeSans" font-size="8.00" fill="#1c2021">Node[33]</text>
<polyline fill="none" stroke="#2e3436" stroke-width="1.5" points="166,-103 220,-103 "/>
<text text-anchor="start" x="174" y="-91.8" font-family="FreeSans" font-size="8.00" fill="#1c2021">age = 1</text>
</g>
<!-- N34 -->
<g id="node6" class="node"><title>N34</title>
<polygon fill="#ffffff" stroke="#ffffff" stroke-width="1.5" points="261,-85 291,-85 303,-97 303,-109 291,-121 261,-121 249,-109 249,-97 261,-85"/>
<path fill="#ffffff" stroke="#ffffff" stroke-width="1.5" d="M291,-85C297,-85 303,-91 303,-97"/>
<path fill="#ffffff" stroke="#ffffff" stroke-width="1.5" d="M303,-109C303,-115 297,-121 291,-121"/>
<path fill="#ffffff" stroke="#ffffff" stroke-width="1.5" d="M261,-121C255,-121 249,-115 249,-109"/>
<path fill="#ffffff" stroke="#ffffff" stroke-width="1.5" d="M249,-97C249,-91 255,-85 261,-85"/>
<polyline fill="none" stroke="#2e3436" stroke-width="1.5" points="261,-85 291,-85 "/>
<path fill="none" stroke="#2e3436" stroke-width="1.5" d="M291,-85C297,-85 303,-91 303,-97"/>
<polyline fill="none" stroke="#2e3436" stroke-width="1.5" points="303,-97 303,-109 "/>
<path fill="none" stroke="#2e3436" stroke-width="1.5" d="M303,-109C303,-115 297,-121 291,-121"/>
<polyline fill="none" stroke="#2e3436" stroke-width="1.5" points="291,-121 261,-121 "/>
<path fill="none" stroke="#2e3436" stroke-width="1.5" d="M261,-121C255,-121 249,-115 249,-109"/>
<polyline fill="none" stroke="#2e3436" stroke-width="1.5" points="249,-109 249,-97 "/>
<path fill="none" stroke="#2e3436" stroke-width="1.5" d="M249,-97C249,-91 255,-85 261,-85"/>
<text text-anchor="middle" x="276" y="-109.8" font-family="FreeSans" font-size="8.00" fill="#1c2021">Node[34]</text>
<polyline fill="none" stroke="#2e3436" stroke-width="1.5" points="249,-103 303,-103 "/>
<text text-anchor="start" x="257" y="-91.8" font-family="FreeSans" font-size="8.00" fill="#1c2021">age = 1</text>
</g>
</g>
</svg>
